<svg width="174" height="249" viewBox="0 0 174 249" fill="none" xmlns="http://www.w3.org/2000/svg">
<g clip-path="url(#clip0_1_100)">
<g filter="url(#filter0_dddddd_1_100)">
<rect width="173.33" height="249.074" rx="15" fill="url(#paint0_linear_1_100)"/>
</g>
<g clip-path="url(#clip1_1_100)">
<path d="M95.6753 145.895C97.1406 153.861 98.421 161.857 99.8864 169.824C104.482 176.496 109.233 183.055 113.829 189.727C120.501 194.322 127.059 199.074 133.732 203.669C141.699 205.135 149.694 206.415 157.661 207.88C165.628 206.415 173.623 205.135 181.59 203.669C188.263 199.074 194.821 194.322 201.494 189.727C206.089 183.055 210.84 176.496 215.436 169.824C216.901 161.857 218.181 153.861 219.647 145.895C218.181 137.928 216.901 129.932 215.436 121.965C210.84 115.293 206.089 108.734 201.494 102.062C194.821 97.4668 188.263 92.7151 181.59 88.1199C173.638 86.6403 165.642 85.3599 157.675 83.8945C149.708 85.3599 141.713 86.6403 133.746 88.1056C127.074 92.7009 120.515 97.4526 113.843 102.048C109.248 108.72 104.496 115.279 99.9006 121.951C98.421 129.918 97.1406 137.928 95.6753 145.895ZM105.734 167.405C104.425 160.249 103.258 153.051 101.963 145.895C103.258 138.724 104.425 131.54 105.734 124.384C109.874 118.394 114.127 112.49 118.282 106.501C124.271 102.361 130.175 98.0928 136.165 93.9528C143.321 92.644 150.519 91.4774 157.675 90.1827C164.846 91.4774 172.03 92.644 179.186 93.9528C185.176 98.0928 191.08 102.347 197.069 106.501C201.209 112.49 205.477 118.394 209.617 124.384C210.926 131.54 212.092 138.738 213.387 145.895C212.078 153.051 210.912 160.249 209.603 167.405C205.463 173.395 201.209 179.299 197.055 185.288C191.065 189.428 185.161 193.696 179.172 197.836C172.016 199.145 164.817 200.312 157.661 201.606C150.491 200.312 143.306 199.145 136.15 197.836C130.161 193.696 124.257 189.442 118.267 185.288C114.142 179.299 109.874 173.395 105.734 167.405Z" fill="white" fill-opacity="0.05"/>
<path d="M150.747 145.894C150.875 146.791 151.003 147.701 151.145 148.598C151.686 149.323 152.226 150.063 152.781 150.788C153.507 151.329 154.232 151.884 154.972 152.425C155.868 152.553 156.779 152.695 157.675 152.823C158.572 152.695 159.482 152.567 160.378 152.425C161.104 151.884 161.844 151.343 162.569 150.788C163.11 150.063 163.665 149.337 164.205 148.598C164.333 147.701 164.476 146.791 164.604 145.894C164.476 144.998 164.348 144.088 164.205 143.191C163.665 142.466 163.124 141.726 162.569 141C161.844 140.46 161.118 139.905 160.378 139.364C159.482 139.236 158.572 139.094 157.675 138.966C156.779 139.094 155.868 139.222 154.972 139.364C154.247 139.905 153.507 140.446 152.781 141C152.241 141.726 151.686 142.452 151.145 143.191C151.017 144.088 150.875 144.984 150.747 145.894ZM156.509 146.378C156.48 146.222 156.466 146.051 156.438 145.894C156.466 145.738 156.48 145.567 156.509 145.411C156.608 145.283 156.708 145.155 156.807 145.012C156.935 144.913 157.063 144.813 157.206 144.728C157.362 144.699 157.533 144.685 157.689 144.657C157.846 144.685 158.017 144.699 158.173 144.728C158.301 144.827 158.429 144.927 158.572 145.012C158.671 145.14 158.771 145.269 158.856 145.411C158.885 145.567 158.899 145.738 158.927 145.894C158.899 146.051 158.885 146.222 158.856 146.378C158.756 146.506 158.657 146.634 158.572 146.777C158.443 146.876 158.315 146.976 158.173 147.075C158.017 147.104 157.846 147.118 157.689 147.146C157.533 147.118 157.362 147.104 157.206 147.075C157.078 146.976 156.95 146.876 156.807 146.777C156.694 146.634 156.608 146.506 156.509 146.378Z" fill="white" fill-opacity="0.05"/>
<path d="M110.898 145.895C111.979 151.912 112.975 157.945 114.056 163.962C117.556 168.984 121.113 173.95 124.598 178.972C129.62 182.457 134.585 186.028 139.607 189.514C145.625 190.595 151.657 191.576 157.675 192.672C163.693 191.591 169.725 190.595 175.743 189.514C180.765 186.014 185.73 182.457 190.752 178.972C194.238 173.95 197.809 168.984 201.294 163.962C202.376 157.945 203.357 151.912 204.453 145.895C203.371 139.877 202.376 133.844 201.294 127.827C197.795 122.805 194.238 117.839 190.752 112.817C185.73 109.332 180.765 105.761 175.743 102.275C169.725 101.194 163.693 100.213 157.675 99.1171C151.657 100.198 145.625 101.194 139.607 102.275C134.585 105.775 129.62 109.332 124.598 112.817C121.113 117.839 117.542 122.805 114.056 127.827C112.975 133.844 111.993 139.877 110.898 145.895ZM143.634 151.699C143.335 149.764 143.05 147.829 142.78 145.88C143.05 143.945 143.335 141.996 143.634 140.062C144.786 138.482 145.952 136.903 147.133 135.338C148.698 134.157 150.263 132.991 151.857 131.839C153.791 131.54 155.726 131.255 157.675 130.985C159.61 131.255 161.559 131.54 163.494 131.839C165.073 132.991 166.652 134.157 168.217 135.338C169.398 136.903 170.565 138.468 171.717 140.062C172.016 141.996 172.3 143.931 172.571 145.88C172.3 147.815 172.016 149.764 171.717 151.699C170.565 153.278 169.398 154.857 168.217 156.422C166.652 157.603 165.087 158.77 163.494 159.922C161.559 160.221 159.624 160.505 157.675 160.776C155.74 160.505 153.791 160.221 151.857 159.922C150.277 158.77 148.698 157.603 147.133 156.422C145.967 154.857 144.8 153.278 143.634 151.699ZM129.208 147.075C129.179 146.876 129.193 146.89 129.222 147.132C129.265 147.431 129.265 147.403 129.208 147.047C129.208 147.061 129.208 147.061 129.208 147.075ZM138.384 166.85C138.227 166.737 138.242 166.737 138.441 166.893C138.683 167.078 138.654 167.064 138.37 166.836L138.384 166.85ZM158.856 174.348C158.657 174.376 158.671 174.362 158.913 174.334C159.212 174.291 159.183 174.291 158.828 174.348C158.842 174.348 158.842 174.348 158.856 174.348ZM178.631 165.186C178.517 165.342 178.517 165.328 178.674 165.129C178.859 164.887 178.845 164.916 178.617 165.2L178.631 165.186ZM186.129 144.714C186.157 144.913 186.157 144.899 186.114 144.657C186.072 144.358 186.072 144.386 186.129 144.742C186.129 144.728 186.129 144.714 186.129 144.714ZM176.967 124.939C177.123 125.052 177.109 125.052 176.91 124.896C176.668 124.711 176.696 124.725 176.981 124.953C176.981 124.939 176.967 124.939 176.967 124.939ZM156.494 117.427C156.694 117.398 156.679 117.413 156.423 117.441C156.125 117.484 156.153 117.484 156.509 117.427H156.494ZM136.719 126.603C136.833 126.447 136.833 126.461 136.677 126.66C136.492 126.902 136.506 126.873 136.734 126.589C136.719 126.589 136.719 126.603 136.719 126.603ZM129.208 144.742C129.25 144.386 129.265 144.344 129.222 144.657C129.193 144.899 129.193 144.913 129.208 144.714C129.208 144.714 129.208 144.728 129.208 144.742ZM136.734 165.2C136.506 164.916 136.492 164.887 136.677 165.129C136.833 165.328 136.833 165.342 136.719 165.186C136.719 165.186 136.719 165.2 136.734 165.2ZM156.523 174.348C156.167 174.305 156.125 174.291 156.438 174.334C156.679 174.362 156.694 174.362 156.509 174.348C156.494 174.348 156.509 174.348 156.523 174.348ZM176.981 166.836C176.696 167.064 176.668 167.078 176.91 166.893C177.109 166.737 177.123 166.737 176.967 166.85L176.981 166.836ZM186.129 147.047C186.086 147.403 186.072 147.445 186.114 147.132C186.143 146.89 186.143 146.876 186.129 147.075C186.129 147.061 186.129 147.061 186.129 147.047ZM178.617 126.589C178.845 126.873 178.859 126.902 178.674 126.66C178.517 126.461 178.517 126.447 178.631 126.603L178.617 126.589ZM158.828 117.427C159.183 117.47 159.226 117.484 158.913 117.441C158.671 117.413 158.657 117.413 158.856 117.427C158.842 117.427 158.842 117.427 158.828 117.427ZM138.37 124.953C138.654 124.725 138.683 124.711 138.441 124.896C138.242 125.052 138.227 125.052 138.384 124.939C138.384 124.939 138.37 124.939 138.37 124.953ZM129.35 145.895C129.279 146.079 129.236 146.279 129.208 146.492C129.165 146.705 129.179 146.919 129.222 147.132C129.222 147.303 129.265 147.459 129.336 147.616C129.506 147.986 129.62 148.27 129.919 148.555C130.588 149.209 131.455 149.266 132.338 149.195C134.543 148.982 136.62 148.185 138.683 147.445C138.924 149.181 139.181 150.917 139.437 152.652C134.13 153.463 126.12 154.132 125.352 147.573C125.281 146.976 125.281 146.421 125.352 145.909C125.281 145.397 125.281 144.842 125.352 144.244C126.12 137.686 134.13 138.354 139.437 139.165C139.166 140.901 138.924 142.637 138.683 144.372C136.606 143.632 134.543 142.836 132.338 142.622C131.455 142.537 130.588 142.608 129.919 143.263C129.62 143.547 129.506 143.832 129.336 144.202C129.265 144.358 129.222 144.515 129.222 144.685C129.179 144.899 129.165 145.112 129.208 145.325C129.236 145.51 129.279 145.71 129.35 145.895ZM137.644 125.863C137.459 125.949 137.288 126.048 137.118 126.191C136.933 126.304 136.79 126.461 136.677 126.646C136.563 126.774 136.463 126.902 136.421 127.058C136.293 127.442 136.164 127.713 136.164 128.14C136.179 129.064 136.748 129.733 137.431 130.302C139.138 131.71 141.172 132.607 143.15 133.56C142.097 134.954 141.044 136.363 140.006 137.771C135.681 134.598 129.549 129.406 133.632 124.213C134.002 123.744 134.4 123.359 134.813 123.046C135.126 122.634 135.51 122.235 135.98 121.866C141.158 117.768 146.351 123.914 149.538 128.239C148.129 129.278 146.721 130.316 145.326 131.383C144.388 129.392 143.491 127.371 142.069 125.664C141.5 124.981 140.831 124.412 139.906 124.398C139.494 124.398 139.209 124.512 138.825 124.654C138.668 124.711 138.526 124.796 138.412 124.91C138.227 125.024 138.085 125.166 137.957 125.351C137.829 125.508 137.729 125.678 137.644 125.863ZM157.675 117.569C157.49 117.498 157.291 117.455 157.078 117.427C156.864 117.384 156.651 117.398 156.438 117.441C156.267 117.441 156.11 117.484 155.954 117.555C155.584 117.726 155.299 117.839 155.015 118.138C154.36 118.807 154.304 119.675 154.375 120.557C154.588 122.762 155.385 124.839 156.125 126.902C154.389 127.144 152.653 127.4 150.918 127.656C150.107 122.349 149.438 114.34 155.997 113.571C156.594 113.5 157.149 113.5 157.661 113.571C158.173 113.5 158.728 113.5 159.326 113.571C165.884 114.34 165.215 122.349 164.404 127.656C162.669 127.386 160.933 127.144 159.198 126.902C159.937 124.825 160.734 122.762 160.947 120.557C161.033 119.675 160.962 118.807 160.307 118.138C160.023 117.839 159.738 117.726 159.368 117.555C159.212 117.484 159.055 117.441 158.885 117.441C158.671 117.398 158.458 117.384 158.244 117.427C158.059 117.455 157.86 117.498 157.675 117.569ZM177.706 125.863C177.621 125.678 177.522 125.508 177.379 125.337C177.265 125.152 177.109 125.01 176.924 124.896C176.796 124.782 176.668 124.682 176.511 124.64C176.127 124.512 175.857 124.384 175.43 124.384C174.505 124.398 173.837 124.967 173.268 125.65C171.859 127.357 170.963 129.392 170.01 131.369C168.616 130.316 167.207 129.263 165.799 128.225C168.971 123.9 174.164 117.768 179.357 121.851C179.826 122.221 180.21 122.62 180.523 123.032C180.936 123.345 181.334 123.729 181.704 124.199C185.801 129.377 179.656 134.57 175.331 137.757C174.292 136.348 173.239 134.94 172.187 133.546C174.178 132.607 176.198 131.71 177.906 130.288C178.589 129.719 179.158 129.064 179.172 128.125C179.172 127.713 179.058 127.428 178.916 127.044C178.859 126.888 178.773 126.745 178.66 126.632C178.546 126.447 178.389 126.304 178.219 126.176C178.048 126.048 177.891 125.949 177.706 125.863ZM186.001 145.895C186.072 145.71 186.114 145.51 186.143 145.297C186.186 145.084 186.171 144.87 186.129 144.657C186.129 144.486 186.086 144.33 186.015 144.173C185.844 143.803 185.73 143.519 185.432 143.234C184.763 142.58 183.895 142.523 183.013 142.594C180.808 142.807 178.731 143.604 176.668 144.344C176.426 142.608 176.17 140.872 175.914 139.137C181.22 138.326 189.23 137.657 189.998 144.216C190.069 144.813 190.069 145.368 189.998 145.88C190.069 146.392 190.069 146.947 189.998 147.545C189.23 154.103 181.22 153.435 175.914 152.624C176.184 150.888 176.426 149.152 176.668 147.417C178.745 148.157 180.808 148.953 183.013 149.167C183.895 149.252 184.763 149.181 185.432 148.526C185.73 148.242 185.844 147.957 186.015 147.587C186.086 147.431 186.129 147.274 186.129 147.104C186.171 146.89 186.186 146.677 186.143 146.464C186.114 146.279 186.072 146.079 186.001 145.895ZM177.706 165.926C177.891 165.84 178.062 165.741 178.233 165.598C178.418 165.485 178.56 165.328 178.674 165.143C178.788 165.015 178.887 164.887 178.93 164.731C179.058 164.347 179.186 164.076 179.186 163.649C179.172 162.725 178.603 162.056 177.92 161.487C176.213 160.079 174.178 159.182 172.201 158.229C173.254 156.835 174.306 155.426 175.345 154.018C179.67 157.191 185.801 162.383 181.718 167.576C181.349 168.045 180.95 168.43 180.538 168.743C180.225 169.155 179.84 169.554 179.371 169.923C174.192 174.021 169 167.875 165.813 163.55C167.221 162.511 168.63 161.473 170.024 160.406C170.963 162.397 171.859 164.418 173.282 166.125C173.851 166.808 174.52 167.377 175.444 167.391C175.857 167.391 176.142 167.277 176.526 167.135C176.682 167.078 176.824 166.993 176.938 166.879C177.123 166.765 177.265 166.609 177.393 166.438C177.507 166.267 177.621 166.111 177.706 165.926ZM157.675 174.22C157.86 174.291 158.059 174.334 158.273 174.362C158.486 174.405 158.7 174.391 158.913 174.348C159.084 174.348 159.24 174.305 159.397 174.234C159.767 174.063 160.051 173.95 160.336 173.651C160.99 172.982 161.047 172.114 160.976 171.232C160.762 169.027 159.966 166.95 159.226 164.887C160.962 164.645 162.697 164.389 164.433 164.133C165.244 169.44 165.913 177.449 159.354 178.218C158.756 178.289 158.202 178.289 157.689 178.218C157.177 178.289 156.622 178.289 156.025 178.218C149.466 177.449 150.135 169.44 150.946 164.133C152.682 164.403 154.417 164.645 156.153 164.887C155.413 166.964 154.617 169.027 154.403 171.232C154.318 172.114 154.389 172.982 155.043 173.651C155.328 173.95 155.612 174.063 155.982 174.234C156.139 174.305 156.295 174.348 156.466 174.348C156.679 174.391 156.893 174.405 157.106 174.362C157.291 174.334 157.49 174.291 157.675 174.22ZM137.644 165.926C137.729 166.111 137.829 166.281 137.971 166.452C138.085 166.637 138.242 166.779 138.427 166.893C138.555 167.007 138.683 167.107 138.839 167.149C139.223 167.277 139.494 167.405 139.92 167.405C140.845 167.391 141.514 166.822 142.083 166.139C143.491 164.432 144.388 162.397 145.341 160.42C146.735 161.473 148.143 162.526 149.552 163.564C146.379 167.889 141.187 174.021 135.994 169.938C135.524 169.568 135.14 169.169 134.827 168.757C134.415 168.444 134.016 168.06 133.646 167.59C129.549 162.412 135.695 157.219 140.02 154.032C141.058 155.441 142.111 156.849 143.164 158.243C141.172 159.182 139.152 160.079 137.445 161.501C136.762 162.07 136.193 162.739 136.179 163.664C136.179 164.076 136.293 164.361 136.435 164.745C136.492 164.901 136.577 165.044 136.691 165.157C136.805 165.342 136.961 165.485 137.132 165.613C137.288 165.727 137.459 165.84 137.644 165.926ZM120.103 145.895C120.003 146.748 120.031 147.673 120.188 148.683C121.198 154.8 126.476 156.436 132.053 156.508C128.155 160.505 125.58 165.385 129.193 170.436C129.791 171.261 130.431 171.929 131.1 172.47C131.626 173.139 132.309 173.779 133.134 174.376C138.185 177.99 143.064 175.415 147.062 171.517C147.133 177.094 148.769 182.372 154.887 183.382C155.897 183.553 156.822 183.567 157.675 183.467C158.529 183.567 159.454 183.538 160.464 183.382C166.581 182.372 168.217 177.094 168.288 171.517C172.286 175.415 177.166 177.99 182.216 174.376C183.041 173.779 183.71 173.139 184.251 172.47C184.919 171.944 185.56 171.261 186.157 170.436C189.771 165.385 187.196 160.505 183.298 156.508C188.874 156.436 194.153 154.8 195.163 148.683C195.333 147.673 195.348 146.748 195.248 145.895C195.348 145.041 195.319 144.116 195.163 143.106C194.153 136.989 188.874 135.353 183.298 135.281C187.196 131.284 189.771 126.404 186.157 121.353C185.56 120.528 184.919 119.86 184.251 119.319C183.724 118.65 183.041 118.01 182.216 117.413C177.166 113.799 172.286 116.374 168.288 120.272C168.217 114.695 166.581 109.417 160.464 108.407C159.454 108.236 158.529 108.222 157.675 108.322C156.822 108.222 155.897 108.251 154.887 108.407C148.769 109.417 147.133 114.695 147.062 120.272C143.064 116.374 138.185 113.799 133.134 117.413C132.309 118.01 131.64 118.65 131.1 119.319C130.431 119.845 129.791 120.528 129.193 121.353C125.58 126.404 128.155 131.284 132.053 135.281C126.476 135.353 121.198 136.989 120.188 143.106C120.031 144.116 120.003 145.041 120.103 145.895ZM117.712 162.44C116.731 156.934 115.82 151.4 114.839 145.895C115.82 140.375 116.731 134.855 117.712 129.349C120.913 124.754 124.171 120.201 127.372 115.606C131.968 112.405 136.52 109.147 141.115 105.946C146.621 104.964 152.155 104.054 157.661 103.072C163.181 104.054 168.701 104.964 174.207 105.946C178.802 109.147 183.354 112.405 187.95 115.606C191.151 120.201 194.409 124.754 197.61 129.349C198.591 134.855 199.502 140.389 200.483 145.895C199.502 151.4 198.591 156.934 197.61 162.44C194.409 167.035 191.151 171.588 187.95 176.183C183.354 179.384 178.802 182.642 174.207 185.843C168.701 186.825 163.167 187.735 157.661 188.717C152.141 187.735 146.621 186.825 141.115 185.843C136.52 182.642 131.968 179.384 127.372 176.183C124.186 171.588 120.913 167.035 117.712 162.44Z" fill="white" fill-opacity="0.05"/>
</g>
<g clip-path="url(#clip2_1_100)">
<path d="M-40.6943 233.672C-39.7371 238.94 -38.9007 244.228 -37.9435 249.496C-34.9418 253.909 -31.8379 258.246 -28.8361 262.658C-24.4776 265.697 -20.1934 268.839 -15.8349 271.878C-10.6307 272.847 -5.40785 273.694 -0.203632 274.663C5.00059 273.694 10.2234 272.847 15.4276 271.878C19.7862 268.839 24.0703 265.697 28.4289 262.658C31.4306 258.246 34.5346 253.909 37.5363 249.496C38.4935 244.228 39.3299 238.94 40.2871 233.672C39.3299 228.404 38.4935 223.116 37.5363 217.848C34.5346 213.435 31.4306 209.098 28.4289 204.686C24.0703 201.647 19.7862 198.505 15.4276 195.466C10.2327 194.488 5.00989 193.641 -0.194336 192.672C-5.39856 193.641 -10.6214 194.488 -15.8256 195.457C-20.1841 198.496 -24.4683 201.638 -28.8269 204.677C-31.8286 209.089 -34.9325 213.426 -37.9342 217.838C-38.9007 223.107 -39.7371 228.404 -40.6943 233.672ZM-34.124 247.897C-34.979 243.165 -35.741 238.404 -36.5867 233.672C-35.741 228.93 -34.979 224.179 -34.124 219.447C-31.4197 215.486 -28.641 211.582 -25.9274 207.621C-22.0149 204.884 -18.1582 202.061 -14.2457 199.323C-9.57123 198.458 -4.86884 197.686 -0.194336 196.83C4.48946 197.686 9.18256 198.458 13.8571 199.323C17.7695 202.061 21.6262 204.874 25.5387 207.621C28.243 211.582 31.031 215.486 33.7353 219.447C34.5903 224.179 35.3524 228.94 36.198 233.672C35.3431 238.404 34.581 243.165 33.726 247.897C31.0217 251.858 28.243 255.762 25.5294 259.723C21.6169 262.46 17.7602 265.283 13.8478 268.021C9.17326 268.886 4.47087 269.658 -0.203632 270.514C-4.88743 269.658 -9.58052 268.886 -14.255 268.021C-18.1675 265.283 -22.0242 262.47 -25.9366 259.723C-28.6317 255.762 -31.4197 251.858 -34.124 247.897Z" fill="white" fill-opacity="0.03"/>
<path d="M-4.72018 233.672C-4.63655 234.265 -4.5529 234.867 -4.45997 235.459C-4.10683 235.939 -3.75369 236.429 -3.39125 236.908C-2.91729 237.266 -2.44334 237.633 -1.96009 237.99C-1.37461 238.075 -0.779842 238.169 -0.194366 238.254C0.391109 238.169 0.985875 238.084 1.57135 237.99C2.04531 237.633 2.52856 237.275 3.00251 236.908C3.35566 236.429 3.71809 235.949 4.07123 235.459C4.15487 234.867 4.24781 234.265 4.33145 233.672C4.24781 233.079 4.16417 232.477 4.07123 231.884C3.71809 231.405 3.36495 230.915 3.00251 230.436C2.52856 230.078 2.0546 229.711 1.57135 229.354C0.985875 229.269 0.391109 229.175 -0.194366 229.09C-0.779842 229.175 -1.37461 229.26 -1.96009 229.354C-2.43404 229.711 -2.91729 230.069 -3.39125 230.436C-3.74439 230.915 -4.10683 231.395 -4.45997 231.884C-4.54361 232.477 -4.63655 233.07 -4.72018 233.672ZM-0.956417 233.992C-0.975003 233.888 -0.984296 233.775 -1.00288 233.672C-0.984296 233.568 -0.975003 233.456 -0.956417 233.352C-0.891364 233.267 -0.826308 233.183 -0.761256 233.089C-0.677616 233.023 -0.593978 232.957 -0.501046 232.901C-0.39882 232.882 -0.287301 232.872 -0.185075 232.853C-0.082849 232.872 0.0286703 232.882 0.130896 232.901C0.214535 232.966 0.298173 233.032 0.391106 233.089C0.456159 233.173 0.521212 233.258 0.576972 233.352C0.595558 233.456 0.604851 233.568 0.623437 233.672C0.604851 233.775 0.595558 233.888 0.576972 233.992C0.511919 234.077 0.446866 234.161 0.391106 234.255C0.307467 234.321 0.223829 234.387 0.130896 234.453C0.0286703 234.472 -0.082849 234.481 -0.185075 234.5C-0.287301 234.481 -0.39882 234.472 -0.501046 234.453C-0.584685 234.387 -0.668323 234.321 -0.761256 234.255C-0.835602 234.161 -0.891364 234.077 -0.956417 233.992Z" fill="white" fill-opacity="0.03"/>
<path d="M-30.7506 233.672C-30.0443 237.652 -29.3938 241.641 -28.6875 245.62C-26.4014 248.941 -24.0781 252.224 -21.8012 255.546C-18.5207 257.85 -15.2773 260.212 -11.9968 262.517C-8.06578 263.232 -4.12544 263.881 -0.194397 264.605C3.73665 263.89 7.67699 263.232 11.608 262.517C14.8885 260.202 18.1319 257.85 21.4124 255.546C23.6893 252.224 26.0219 248.941 28.2987 245.62C29.005 241.641 29.6462 237.652 30.3618 233.672C29.6555 229.692 29.005 225.703 28.2987 221.724C26.0126 218.403 23.6893 215.119 21.4124 211.798C18.1319 209.493 14.8885 207.132 11.608 204.827C7.67699 204.112 3.73665 203.463 -0.194397 202.738C-4.12544 203.454 -8.06578 204.112 -11.9968 204.827C-15.2773 207.141 -18.5207 209.493 -21.8012 211.798C-24.0781 215.119 -26.4107 218.403 -28.6875 221.724C-29.3938 225.703 -30.035 229.692 -30.7506 233.672ZM-9.36684 237.51C-9.562 236.231 -9.74786 234.951 -9.92443 233.663C-9.74786 232.383 -9.562 231.094 -9.36684 229.815C-8.61408 228.77 -7.85204 227.726 -7.0807 226.691C-6.05844 225.91 -5.03618 225.139 -3.99534 224.377C-2.73145 224.179 -1.46757 223.991 -0.194397 223.812C1.06949 223.991 2.34266 224.179 3.60654 224.377C4.63809 225.139 5.66965 225.91 6.6919 226.691C7.46325 227.726 8.22529 228.761 8.97804 229.815C9.1732 231.094 9.35907 232.374 9.53564 233.663C9.35907 234.942 9.1732 236.231 8.97804 237.51C8.22529 238.555 7.46325 239.599 6.6919 240.634C5.66965 241.415 4.64738 242.186 3.60654 242.948C2.34266 243.146 1.07878 243.334 -0.194397 243.513C-1.45828 243.334 -2.73145 243.146 -3.99534 242.948C-5.02689 242.186 -6.05844 241.415 -7.0807 240.634C-7.84275 239.599 -8.60479 238.555 -9.36684 237.51ZM-18.7902 234.453C-18.8088 234.321 -18.7995 234.331 -18.7809 234.49C-18.753 234.688 -18.753 234.669 -18.7902 234.434C-18.7902 234.443 -18.7902 234.443 -18.7902 234.453ZM-12.796 247.53C-12.8983 247.455 -12.889 247.455 -12.7589 247.558C-12.6009 247.68 -12.6195 247.671 -12.8053 247.52L-12.796 247.53ZM0.576942 252.488C0.446836 252.507 0.456131 252.497 0.614117 252.479C0.809275 252.45 0.790686 252.45 0.558355 252.488C0.567648 252.488 0.567648 252.488 0.576942 252.488ZM13.4946 246.429C13.4202 246.533 13.4202 246.523 13.5224 246.392C13.6433 246.232 13.634 246.25 13.4853 246.439L13.4946 246.429ZM18.3921 232.891C18.4107 233.023 18.4107 233.013 18.3828 232.853C18.3549 232.656 18.3549 232.675 18.3921 232.91C18.3921 232.9 18.3921 232.891 18.3921 232.891ZM12.4073 219.814C12.5095 219.889 12.5002 219.889 12.3701 219.786C12.2121 219.663 12.2307 219.673 12.4165 219.823C12.4165 219.814 12.4073 219.814 12.4073 219.814ZM-0.965738 214.847C-0.835632 214.828 -0.844925 214.837 -1.0122 214.856C-1.20736 214.884 -1.18878 214.884 -0.956446 214.847H-0.965738ZM-13.8834 220.915C-13.809 220.811 -13.809 220.821 -13.9112 220.952C-14.0321 221.112 -14.0228 221.093 -13.8741 220.905C-13.8834 220.905 -13.8834 220.915 -13.8834 220.915ZM-18.7902 232.91C-18.7623 232.675 -18.753 232.646 -18.7809 232.853C-18.7995 233.013 -18.7995 233.023 -18.7902 232.891C-18.7902 232.891 -18.7902 232.9 -18.7902 232.91ZM-13.8741 246.439C-14.0228 246.25 -14.0321 246.232 -13.9112 246.392C-13.809 246.523 -13.809 246.533 -13.8834 246.429C-13.8834 246.429 -13.8834 246.439 -13.8741 246.439ZM-0.947151 252.488C-1.17948 252.46 -1.20736 252.45 -1.00291 252.479C-0.844927 252.497 -0.835634 252.497 -0.956446 252.488C-0.965738 252.488 -0.956444 252.488 -0.947151 252.488ZM12.4165 247.52C12.2307 247.671 12.2121 247.68 12.3701 247.558C12.5002 247.455 12.5095 247.455 12.4073 247.53L12.4165 247.52ZM18.3921 234.434C18.3642 234.669 18.3549 234.697 18.3828 234.49C18.4014 234.331 18.4014 234.321 18.3921 234.453C18.3921 234.443 18.3921 234.443 18.3921 234.434ZM13.4853 220.905C13.634 221.093 13.6433 221.112 13.5224 220.952C13.4202 220.821 13.4202 220.811 13.4946 220.915L13.4853 220.905ZM0.558355 214.847C0.790686 214.875 0.818567 214.884 0.614117 214.856C0.456131 214.837 0.446836 214.837 0.576942 214.847C0.567648 214.847 0.567648 214.847 0.558355 214.847ZM-12.8053 219.823C-12.6195 219.673 -12.6009 219.663 -12.7589 219.786C-12.889 219.889 -12.8983 219.889 -12.796 219.814C-12.796 219.814 -12.8053 219.814 -12.8053 219.823ZM-18.6973 233.672C-18.7437 233.794 -18.7716 233.926 -18.7902 234.067C-18.8181 234.208 -18.8088 234.349 -18.7809 234.49C-18.7809 234.603 -18.753 234.707 -18.7066 234.81C-18.595 235.055 -18.5207 235.243 -18.3255 235.431C-17.8887 235.864 -17.3219 235.902 -16.7457 235.855C-15.3052 235.713 -13.9484 235.187 -12.6009 234.697C-12.4429 235.845 -12.2756 236.993 -12.1083 238.141C-15.5747 238.677 -20.8068 239.119 -21.3087 234.782C-21.3551 234.387 -21.3551 234.02 -21.3087 233.681C-21.3551 233.343 -21.3551 232.976 -21.3087 232.581C-20.8068 228.244 -15.5747 228.686 -12.1083 229.222C-12.2849 230.37 -12.4429 231.518 -12.6009 232.665C-13.9577 232.176 -15.3052 231.649 -16.7457 231.508C-17.3219 231.452 -17.8887 231.499 -18.3255 231.931C-18.5207 232.12 -18.595 232.308 -18.7066 232.552C-18.753 232.656 -18.7809 232.759 -18.7809 232.872C-18.8088 233.013 -18.8181 233.155 -18.7902 233.296C-18.7716 233.418 -18.7437 233.55 -18.6973 233.672ZM-13.2793 220.426C-13.4001 220.482 -13.5116 220.548 -13.6231 220.642C-13.744 220.717 -13.8369 220.821 -13.9112 220.943C-13.9856 221.028 -14.0506 221.112 -14.0785 221.216C-14.1622 221.47 -14.2458 221.649 -14.2458 221.931C-14.2365 222.542 -13.8648 222.984 -13.4187 223.361C-12.3035 224.292 -10.9746 224.885 -9.68281 225.515C-10.3705 226.437 -11.0582 227.369 -11.7366 228.3C-14.5618 226.202 -18.5672 222.768 -15.9 219.334C-15.6584 219.024 -15.3982 218.77 -15.1287 218.563C-14.9242 218.29 -14.6733 218.026 -14.3666 217.782C-10.9839 215.072 -7.59183 219.137 -5.51014 221.997C-6.43017 222.683 -7.3502 223.37 -8.26094 224.076C-8.87429 222.759 -9.45977 221.423 -10.3891 220.294C-10.7608 219.842 -11.1976 219.466 -11.8017 219.456C-12.0712 219.456 -12.257 219.532 -12.508 219.626C-12.6102 219.663 -12.7031 219.72 -12.7775 219.795C-12.8983 219.87 -12.9912 219.965 -13.0748 220.087C-13.1585 220.19 -13.2235 220.303 -13.2793 220.426ZM-0.194397 214.941C-0.315208 214.894 -0.445316 214.865 -0.584715 214.847C-0.724113 214.818 -0.863512 214.828 -1.00291 214.856C-1.11443 214.856 -1.21666 214.884 -1.31888 214.931C-1.56051 215.044 -1.74637 215.119 -1.93224 215.317C-2.35973 215.759 -2.3969 216.333 -2.35043 216.916C-2.21103 218.375 -1.69061 219.748 -1.20736 221.112C-2.34114 221.272 -3.47491 221.442 -4.60869 221.611C-5.13841 218.102 -5.57519 212.805 -1.291 212.297C-0.900684 212.25 -0.538248 212.25 -0.203691 212.297C0.130865 212.25 0.493305 212.25 0.883621 212.297C5.16781 212.805 4.73103 218.102 4.20131 221.611C3.06754 221.432 1.93376 221.272 0.799982 221.112C1.28323 219.739 1.80365 218.375 1.94305 216.916C1.99881 216.333 1.95234 215.759 1.52485 215.317C1.33899 215.119 1.15312 215.044 0.911499 214.931C0.809275 214.884 0.707048 214.856 0.59553 214.856C0.456131 214.828 0.31673 214.818 0.177332 214.847C0.0565205 214.865 -0.0735836 214.894 -0.194397 214.941ZM12.8905 220.426C12.8347 220.303 12.7697 220.19 12.6768 220.077C12.6024 219.955 12.5002 219.861 12.3794 219.786C12.2957 219.71 12.2121 219.645 12.1099 219.616C11.859 219.532 11.6824 219.447 11.4036 219.447C10.7995 219.456 10.3627 219.833 9.99101 220.284C9.07098 221.413 8.4855 222.759 7.86285 224.066C6.95211 223.37 6.03208 222.674 5.11205 221.987C7.18444 219.127 10.5765 215.072 13.9685 217.772C14.2752 218.017 14.5261 218.28 14.7306 218.553C15.0001 218.76 15.2603 219.014 15.5019 219.325C18.1784 222.749 14.1637 226.183 11.3385 228.291C10.6601 227.359 9.97242 226.428 9.28472 225.506C10.5858 224.885 11.9054 224.292 13.0206 223.351C13.4667 222.975 13.8384 222.542 13.8477 221.921C13.8477 221.649 13.7734 221.46 13.6804 221.206C13.6433 221.103 13.5875 221.009 13.5131 220.934C13.4388 220.811 13.3366 220.717 13.2251 220.632C13.1135 220.548 13.0113 220.482 12.8905 220.426ZM18.3085 233.672C18.3549 233.55 18.3828 233.418 18.4014 233.277C18.4293 233.136 18.42 232.995 18.3921 232.853C18.3921 232.741 18.3642 232.637 18.3178 232.534C18.2062 232.289 18.1319 232.101 17.9367 231.913C17.5 231.48 16.9331 231.442 16.3569 231.489C14.9164 231.63 13.5596 232.157 12.2121 232.646C12.0541 231.499 11.8868 230.351 11.7196 229.203C15.1859 228.667 20.418 228.225 20.9199 232.562C20.9663 232.957 20.9663 233.324 20.9199 233.663C20.9663 234.001 20.9663 234.368 20.9199 234.763C20.418 239.1 15.1859 238.658 11.7196 238.122C11.8961 236.974 12.0541 235.826 12.2121 234.679C13.5689 235.168 14.9164 235.695 16.3569 235.836C16.9331 235.892 17.5 235.845 17.9367 235.412C18.1319 235.224 18.2062 235.036 18.3178 234.791C18.3642 234.688 18.3921 234.585 18.3921 234.472C18.42 234.331 18.4293 234.189 18.4014 234.048C18.3828 233.926 18.3549 233.794 18.3085 233.672ZM12.8905 246.918C13.0113 246.862 13.1228 246.796 13.2344 246.702C13.3552 246.627 13.4481 246.523 13.5224 246.401C13.5968 246.316 13.6618 246.232 13.6897 246.128C13.7734 245.874 13.857 245.695 13.857 245.413C13.8477 244.802 13.476 244.359 13.0299 243.983C11.9147 243.052 10.5858 242.459 9.29401 241.829C9.98172 240.907 10.6694 239.975 11.3478 239.044C14.173 241.142 18.1784 244.576 15.5112 248.01C15.2696 248.32 15.0094 248.574 14.7399 248.781C14.5354 249.054 14.2845 249.317 13.9778 249.562C10.5951 252.272 7.20303 248.207 5.12134 245.347C6.04137 244.66 6.96141 243.974 7.87214 243.268C8.4855 244.585 9.07097 245.921 10.0003 247.05C10.372 247.502 10.8088 247.878 11.4129 247.887C11.6824 247.887 11.8682 247.812 12.1192 247.718C12.2214 247.68 12.3143 247.624 12.3887 247.549C12.5095 247.473 12.6024 247.37 12.6861 247.257C12.7604 247.144 12.8347 247.041 12.8905 246.918ZM-0.194397 252.403C-0.0735836 252.45 0.0565205 252.479 0.195919 252.497C0.335318 252.526 0.474716 252.516 0.614117 252.488C0.725636 252.488 0.827862 252.46 0.930086 252.413C1.17171 252.3 1.35757 252.224 1.54344 252.027C1.97093 251.585 2.00811 251.011 1.96164 250.428C1.82224 248.969 1.30182 247.596 0.818565 246.232C1.95234 246.072 3.08612 245.902 4.2199 245.733C4.74961 249.242 5.18639 254.539 0.902205 255.047C0.511889 255.094 0.149452 255.094 -0.185104 255.047C-0.519661 255.094 -0.882101 255.094 -1.27242 255.047C-5.55661 254.539 -5.11982 249.242 -4.59011 245.733C-3.45633 245.912 -2.32255 246.072 -1.18878 246.232C-1.67203 247.605 -2.19245 248.969 -2.33185 250.428C-2.38761 251.011 -2.34114 251.585 -1.91365 252.027C-1.72779 252.224 -1.54192 252.3 -1.30029 252.413C-1.19807 252.46 -1.09584 252.488 -0.984325 252.488C-0.844925 252.516 -0.705526 252.526 -0.566128 252.497C-0.445314 252.479 -0.315208 252.45 -0.194397 252.403ZM-13.2793 246.918C-13.2235 247.041 -13.1585 247.154 -13.0656 247.266C-12.9912 247.389 -12.889 247.483 -12.7682 247.558C-12.6845 247.633 -12.6009 247.699 -12.4987 247.727C-12.2477 247.812 -12.0712 247.897 -11.7924 247.897C-11.1883 247.887 -10.7515 247.511 -10.3798 247.06C-9.45977 245.931 -8.8743 244.585 -8.25165 243.277C-7.34091 243.974 -6.42088 244.67 -5.50084 245.357C-7.57324 248.217 -10.9653 252.272 -14.3573 249.571C-14.664 249.327 -14.9149 249.063 -15.1194 248.791C-15.3889 248.584 -15.6491 248.33 -15.8907 248.019C-18.5672 244.595 -14.5525 241.161 -11.7273 239.053C-11.0489 239.985 -10.3612 240.916 -9.67351 241.838C-10.9746 242.459 -12.2942 243.052 -13.4094 243.993C-13.8555 244.369 -14.2272 244.811 -14.2365 245.423C-14.2365 245.695 -14.1622 245.884 -14.0692 246.138C-14.032 246.241 -13.9763 246.335 -13.9019 246.41C-13.8276 246.533 -13.7254 246.627 -13.6139 246.711C-13.5116 246.787 -13.4001 246.862 -13.2793 246.918ZM-24.7379 233.672C-24.8029 234.236 -24.7843 234.848 -24.6821 235.516C-24.0223 239.561 -20.5745 240.643 -16.9315 240.69C-19.4779 243.334 -21.16 246.561 -18.7995 249.901C-18.4092 250.446 -17.991 250.889 -17.5542 251.246C-17.2103 251.688 -16.7643 252.112 -16.2253 252.507C-12.9262 254.896 -9.73857 253.194 -7.12716 250.616C-7.0807 254.304 -6.01197 257.794 -2.01588 258.462C-1.35606 258.575 -0.751991 258.584 -0.194397 258.518C0.363199 258.584 0.96726 258.565 1.62708 258.462C5.62318 257.794 6.6919 254.304 6.73837 250.616C9.34977 253.194 12.5374 254.896 15.8365 252.507C16.3755 252.112 16.8123 251.688 17.1654 251.246C17.6022 250.898 18.0204 250.446 18.4107 249.901C20.7712 246.561 19.0891 243.334 16.5428 240.69C20.1857 240.643 23.6335 239.561 24.2933 235.516C24.4048 234.848 24.4141 234.236 24.3491 233.672C24.4141 233.107 24.3955 232.496 24.2933 231.828C23.6335 227.783 20.1857 226.701 16.5428 226.654C19.0891 224.01 20.7712 220.783 18.4107 217.443C18.0204 216.898 17.6022 216.455 17.1654 216.098C16.8215 215.656 16.3755 215.232 15.8365 214.837C12.5374 212.448 9.34977 214.15 6.73837 216.728C6.6919 213.04 5.62318 209.55 1.62708 208.882C0.96726 208.769 0.363199 208.76 -0.194397 208.825C-0.751991 208.76 -1.35606 208.778 -2.01588 208.882C-6.01197 209.55 -7.0807 213.04 -7.12716 216.728C-9.73857 214.15 -12.9262 212.448 -16.2253 214.837C-16.7643 215.232 -17.201 215.656 -17.5542 216.098C-17.991 216.446 -18.4092 216.898 -18.7995 217.443C-21.16 220.783 -19.4779 224.01 -16.9315 226.654C-20.5745 226.701 -24.0223 227.783 -24.6821 231.828C-24.7843 232.496 -24.8029 233.107 -24.7379 233.672ZM-26.2991 244.613C-26.9404 240.973 -27.5351 237.313 -28.1764 233.672C-27.5351 230.022 -26.9404 226.371 -26.2991 222.73C-24.2082 219.692 -22.08 216.681 -19.989 213.642C-16.9873 211.526 -14.0135 209.371 -11.0117 207.254C-7.41525 206.605 -3.80018 206.003 -0.203691 205.354C3.40209 206.003 7.00787 206.605 10.6044 207.254C13.6061 209.371 16.5799 211.526 19.5816 213.642C21.6726 216.681 23.8008 219.692 25.8918 222.73C26.533 226.371 27.1278 230.031 27.769 233.672C27.1278 237.313 26.533 240.973 25.8918 244.613C23.8008 247.652 21.6726 250.663 19.5816 253.702C16.5799 255.818 13.6061 257.973 10.6044 260.09C7.00787 260.739 3.3928 261.341 -0.203691 261.99C-3.80947 261.341 -7.41525 260.739 -11.0117 260.09C-14.0135 257.973 -16.9873 255.818 -19.989 253.702C-22.0707 250.663 -24.2082 247.652 -26.2991 244.613Z" fill="white" fill-opacity="0.03"/>
</g>
</g>
<defs>
<filter id="filter0_dddddd_1_100" x="-80" y="0" width="333.33" height="429.074" filterUnits="userSpaceOnUse" color-interpolation-filters="sRGB">
<feFlood flood-opacity="0" result="BackgroundImageFix"/>
<feColorMatrix in="SourceAlpha" type="matrix" values="0 0 0 0 0 0 0 0 0 0 0 0 0 0 0 0 0 0 127 0" result="hardAlpha"/>
<feOffset dy="2.76726"/>
<feGaussianBlur stdDeviation="1.1069"/>
<feColorMatrix type="matrix" values="0 0 0 0 0 0 0 0 0 0 0 0 0 0 0 0 0 0 0.0196802 0"/>
<feBlend mode="normal" in2="BackgroundImageFix" result="effect1_dropShadow_1_100"/>
<feColorMatrix in="SourceAlpha" type="matrix" values="0 0 0 0 0 0 0 0 0 0 0 0 0 0 0 0 0 0 127 0" result="hardAlpha"/>
<feOffset dy="6.6501"/>
<feGaussianBlur stdDeviation="2.66004"/>
<feColorMatrix type="matrix" values="0 0 0 0 0 0 0 0 0 0 0 0 0 0 0 0 0 0 0.0282725 0"/>
<feBlend mode="normal" in2="effect1_dropShadow_1_100" result="effect2_dropShadow_1_100"/>
<feColorMatrix in="SourceAlpha" type="matrix" values="0 0 0 0 0 0 0 0 0 0 0 0 0 0 0 0 0 0 127 0" result="hardAlpha"/>
<feOffset dy="12.5216"/>
<feGaussianBlur stdDeviation="5.00862"/>
<feColorMatrix type="matrix" values="0 0 0 0 0 0 0 0 0 0 0 0 0 0 0 0 0 0 0.035 0"/>
<feBlend mode="normal" in2="effect2_dropShadow_1_100" result="effect3_dropShadow_1_100"/>
<feColorMatrix in="SourceAlpha" type="matrix" values="0 0 0 0 0 0 0 0 0 0 0 0 0 0 0 0 0 0 127 0" result="hardAlpha"/>
<feOffset dy="22.3363"/>
<feGaussianBlur stdDeviation="8.93452"/>
<feColorMatrix type="matrix" values="0 0 0 0 0 0 0 0 0 0 0 0 0 0 0 0 0 0 0.0417275 0"/>
<feBlend mode="normal" in2="effect3_dropShadow_1_100" result="effect4_dropShadow_1_100"/>
<feColorMatrix in="SourceAlpha" type="matrix" values="0 0 0 0 0 0 0 0 0 0 0 0 0 0 0 0 0 0 127 0" result="hardAlpha"/>
<feOffset dy="41.7776"/>
<feGaussianBlur stdDeviation="16.711"/>
<feColorMatrix type="matrix" values="0 0 0 0 0 0 0 0 0 0 0 0 0 0 0 0 0 0 0.0503198 0"/>
<feBlend mode="normal" in2="effect4_dropShadow_1_100" result="effect5_dropShadow_1_100"/>
<feColorMatrix in="SourceAlpha" type="matrix" values="0 0 0 0 0 0 0 0 0 0 0 0 0 0 0 0 0 0 127 0" result="hardAlpha"/>
<feOffset dy="100"/>
<feGaussianBlur stdDeviation="40"/>
<feColorMatrix type="matrix" values="0 0 0 0 0 0 0 0 0 0 0 0 0 0 0 0 0 0 0.07 0"/>
<feBlend mode="normal" in2="effect5_dropShadow_1_100" result="effect6_dropShadow_1_100"/>
<feBlend mode="normal" in="SourceGraphic" in2="effect6_dropShadow_1_100" result="shape"/>
</filter>
<linearGradient id="paint0_linear_1_100" x1="170.19" y1="-9.0157" x2="-88.9293" y2="315.052" gradientUnits="userSpaceOnUse">
<stop stop-color="#191919"/>
<stop offset="1" stop-color="#212121"/>
</linearGradient>
<clipPath id="clip0_1_100">
<rect width="174" height="249" rx="15" fill="white"/>
</clipPath>
<clipPath id="clip1_1_100">
<rect width="124" height="124" fill="white" transform="translate(95.6753 83.8945)"/>
</clipPath>
<clipPath id="clip2_1_100">
<rect width="81" height="82" fill="white" transform="translate(-40.6943 192.672)"/>
</clipPath>
</defs>
</svg>
